<mxfile host="app.diagrams.net" modified="2020-12-07T08:14:17.085Z" agent="5.0 (Windows NT 10.0; Win64; x64) AppleWebKit/537.36 (KHTML, like Gecko) Chrome/87.0.4280.66 Safari/537.36" etag="P_-f3qCXP8HVkPtsLOC8" version="13.10.9" type="github">
  <diagram id="uUYi-dty24SCdnFy3V2Z" name="Page-1">
    <mxGraphModel dx="868" dy="482" grid="1" gridSize="10" guides="1" tooltips="1" connect="1" arrows="1" fold="1" page="1" pageScale="1" pageWidth="850" pageHeight="1100" math="0" shadow="0">
      <root>
        <mxCell id="0" />
        <mxCell id="1" parent="0" />
        <mxCell id="lyOv5FIl9pwsdQ8Ih314-1" value="" style="aspect=fixed;html=1;points=[];align=center;image;fontSize=12;image=img/lib/azure2/identity/Users.svg;" parent="1" vertex="1">
          <mxGeometry x="20" y="90" width="54.86" height="60" as="geometry" />
        </mxCell>
        <mxCell id="lyOv5FIl9pwsdQ8Ih314-2" value="" style="aspect=fixed;html=1;points=[];align=center;image;fontSize=12;image=img/lib/azure2/identity/Users.svg;" parent="1" vertex="1">
          <mxGeometry x="20" y="235" width="54.86" height="60" as="geometry" />
        </mxCell>
        <mxCell id="lyOv5FIl9pwsdQ8Ih314-3" value="" style="aspect=fixed;html=1;points=[];align=center;image;fontSize=12;image=img/lib/azure2/identity/Users.svg;" parent="1" vertex="1">
          <mxGeometry x="20" y="380" width="54.86" height="60" as="geometry" />
        </mxCell>
        <mxCell id="lyOv5FIl9pwsdQ8Ih314-5" value="" style="rounded=0;whiteSpace=wrap;html=1;" parent="1" vertex="1">
          <mxGeometry x="140" y="90" width="680" height="360" as="geometry" />
        </mxCell>
        <object label="" id="lyOv5FIl9pwsdQ8Ih314-9">
          <mxCell style="rounded=1;whiteSpace=wrap;html=1;fillColor=#FFB366;" parent="1" vertex="1">
            <mxGeometry x="100" y="90" width="30" height="360" as="geometry" />
          </mxCell>
        </object>
        <mxCell id="lyOv5FIl9pwsdQ8Ih314-10" value="Firewall" style="text;html=1;strokeColor=none;fillColor=none;align=center;verticalAlign=middle;whiteSpace=wrap;rounded=0;rotation=-91;" parent="1" vertex="1">
          <mxGeometry x="36.67" y="232.51" width="155" height="20" as="geometry" />
        </mxCell>
        <mxCell id="lyOv5FIl9pwsdQ8Ih314-11" value="Nginx (Web server and load balancer)" style="rounded=1;whiteSpace=wrap;html=1;fillColor=#E6E6E6;" parent="1" vertex="1">
          <mxGeometry x="160" y="110" width="90" height="290" as="geometry" />
        </mxCell>
        <mxCell id="lyOv5FIl9pwsdQ8Ih314-21" value="" style="endArrow=classic;startArrow=classic;html=1;exitX=0.218;exitY=0.432;exitDx=0;exitDy=0;exitPerimeter=0;" parent="1" edge="1">
          <mxGeometry width="50" height="50" relative="1" as="geometry">
            <mxPoint x="251.9000000000001" y="244.84000000000003" as="sourcePoint" />
            <mxPoint x="312" y="245" as="targetPoint" />
          </mxGeometry>
        </mxCell>
        <mxCell id="lyOv5FIl9pwsdQ8Ih314-22" value="" style="endArrow=classic;startArrow=classic;html=1;exitX=0.218;exitY=0.432;exitDx=0;exitDy=0;exitPerimeter=0;entryX=0.574;entryY=0.667;entryDx=0;entryDy=0;entryPerimeter=0;" parent="1" edge="1" target="lyOv5FIl9pwsdQ8Ih314-5">
          <mxGeometry width="50" height="50" relative="1" as="geometry">
            <mxPoint x="384.0000000000001" y="238.00000000000003" as="sourcePoint" />
            <mxPoint x="531.7" y="223" as="targetPoint" />
          </mxGeometry>
        </mxCell>
        <mxCell id="lyOv5FIl9pwsdQ8Ih314-23" value="" style="aspect=fixed;pointerEvents=1;shadow=0;dashed=0;html=1;strokeColor=none;labelPosition=center;verticalLabelPosition=bottom;verticalAlign=top;align=center;fillColor=#00188D;shape=mxgraph.mscae.enterprise.application_server" parent="1" vertex="1">
          <mxGeometry x="310" y="180" width="90" height="104.65" as="geometry" />
        </mxCell>
        <mxCell id="lyOv5FIl9pwsdQ8Ih314-24" value="Application server" style="text;html=1;strokeColor=none;fillColor=none;align=center;verticalAlign=middle;whiteSpace=wrap;rounded=0;" parent="1" vertex="1">
          <mxGeometry x="310" y="300" width="90" height="20" as="geometry" />
        </mxCell>
        <mxCell id="lyOv5FIl9pwsdQ8Ih314-25" value="" style="aspect=fixed;pointerEvents=1;shadow=0;dashed=0;html=1;strokeColor=none;labelPosition=center;verticalLabelPosition=bottom;verticalAlign=top;align=center;fillColor=#00188D;shape=mxgraph.mscae.enterprise.application_server" parent="1" vertex="1">
          <mxGeometry x="531.7" y="120" width="81.7" height="95" as="geometry" />
        </mxCell>
        <mxCell id="lyOv5FIl9pwsdQ8Ih314-26" value="Django API Server" style="text;html=1;strokeColor=none;fillColor=none;align=center;verticalAlign=middle;whiteSpace=wrap;rounded=0;" parent="1" vertex="1">
          <mxGeometry x="533.4" y="207.51" width="78.3" height="45" as="geometry" />
        </mxCell>
        <mxCell id="lyOv5FIl9pwsdQ8Ih314-29" value="" style="outlineConnect=0;fontColor=#232F3E;gradientColor=none;fillColor=#3334B9;strokeColor=none;dashed=0;verticalLabelPosition=bottom;verticalAlign=top;align=center;html=1;fontSize=12;fontStyle=0;aspect=fixed;pointerEvents=1;shape=mxgraph.aws4.rds_sql_server_instance;" parent="1" vertex="1">
          <mxGeometry x="730" y="169.99999999999997" width="78" height="78" as="geometry" />
        </mxCell>
        <mxCell id="lyOv5FIl9pwsdQ8Ih314-30" value="" style="endArrow=classic;startArrow=classic;html=1;" parent="1" edge="1" target="lyOv5FIl9pwsdQ8Ih314-29" source="lyOv5FIl9pwsdQ8Ih314-25">
          <mxGeometry width="50" height="50" relative="1" as="geometry">
            <mxPoint x="622.5" y="160" as="sourcePoint" />
            <mxPoint x="682.5999999999999" y="160.15999999999997" as="targetPoint" />
          </mxGeometry>
        </mxCell>
        <mxCell id="5j5NBlWjlEua-HbBcBw6-1" value="PostgresSql&lt;br&gt;" style="text;html=1;strokeColor=none;fillColor=none;align=center;verticalAlign=middle;whiteSpace=wrap;rounded=0;" vertex="1" parent="1">
          <mxGeometry x="730" y="300" width="70" height="30" as="geometry" />
        </mxCell>
        <mxCell id="5j5NBlWjlEua-HbBcBw6-2" value="" style="shape=cylinder3;whiteSpace=wrap;html=1;boundedLbl=1;backgroundOutline=1;size=15;fillColor=#E6E6E6;" vertex="1" parent="1">
          <mxGeometry x="531.7" y="310" width="60" height="80" as="geometry" />
        </mxCell>
        <mxCell id="5j5NBlWjlEua-HbBcBw6-3" value="Redis Caching server" style="text;html=1;strokeColor=none;fillColor=none;align=center;verticalAlign=middle;whiteSpace=wrap;rounded=0;" vertex="1" parent="1">
          <mxGeometry x="520" y="400" width="130" height="20" as="geometry" />
        </mxCell>
        <mxCell id="5j5NBlWjlEua-HbBcBw6-4" value="Return from cachec server &lt;br&gt;If the response is already available&amp;nbsp;" style="text;html=1;strokeColor=none;fillColor=none;align=center;verticalAlign=middle;whiteSpace=wrap;rounded=0;rotation=30;" vertex="1" parent="1">
          <mxGeometry x="394.55" y="296.27" width="108.67" height="34.75" as="geometry" />
        </mxCell>
        <mxCell id="5j5NBlWjlEua-HbBcBw6-5" value="" style="endArrow=classic;html=1;exitX=0.696;exitY=0.125;exitDx=0;exitDy=0;exitPerimeter=0;" edge="1" parent="1" source="5j5NBlWjlEua-HbBcBw6-2" target="lyOv5FIl9pwsdQ8Ih314-26">
          <mxGeometry width="50" height="50" relative="1" as="geometry">
            <mxPoint x="572" y="305" as="sourcePoint" />
            <mxPoint x="568" y="270" as="targetPoint" />
          </mxGeometry>
        </mxCell>
        <mxCell id="5j5NBlWjlEua-HbBcBw6-6" value="If the response is not available&lt;br&gt;" style="text;html=1;strokeColor=none;fillColor=none;align=center;verticalAlign=middle;whiteSpace=wrap;rounded=0;" vertex="1" parent="1">
          <mxGeometry x="570" y="255.01" width="90" height="44.99" as="geometry" />
        </mxCell>
        <mxCell id="5j5NBlWjlEua-HbBcBw6-7" value="" style="endArrow=classic;html=1;exitX=-0.082;exitY=0.705;exitDx=0;exitDy=0;exitPerimeter=0;" edge="1" parent="1" source="lyOv5FIl9pwsdQ8Ih314-25">
          <mxGeometry width="50" height="50" relative="1" as="geometry">
            <mxPoint x="430" y="190" as="sourcePoint" />
            <mxPoint x="380" y="232" as="targetPoint" />
          </mxGeometry>
        </mxCell>
        <mxCell id="5j5NBlWjlEua-HbBcBw6-8" value="Response from application directly&lt;br&gt;" style="text;html=1;strokeColor=none;fillColor=none;align=center;verticalAlign=middle;whiteSpace=wrap;rounded=0;rotation=-15;" vertex="1" parent="1">
          <mxGeometry x="399.52" y="172.58" width="110.38" height="20" as="geometry" />
        </mxCell>
      </root>
    </mxGraphModel>
  </diagram>
</mxfile>
